<?xml version="1.0" encoding="utf-8"?>
<!-- Generator: Adobe Illustrator 16.0.0, SVG Export Plug-In . SVG Version: 6.00 Build 0)  -->
<!DOCTYPE svg PUBLIC "-//W3C//DTD SVG 1.1//EN" "http://www.w3.org/Graphics/SVG/1.1/DTD/svg11.dtd">
<svg version="1.1" id="Layer_1" xmlns="http://www.w3.org/2000/svg" xmlns:xlink="http://www.w3.org/1999/xlink" x="0px" y="0px"
	 width="1200px" height="1200px" viewBox="0 0 1200 1200" enable-background="new 0 0 1200 1200" xml:space="preserve">
<rect x="364.367" y="399.164" fill="none" width="438.775" height="395.918"/>
<text transform="matrix(1 0 0 1 364.3672 645.1855)" font-family="'NasalizationRg-Regular'" font-size="325">IP</text>
<rect x="583.755" y="584.756" fill="none" width="377.552" height="95.918"/>
<text transform="matrix(1 0 0 1 583.7549 633.959)" font-family="'NasalizationRg-Regular'" font-size="65">Spawn</text>
<g>
	<text transform="matrix(1 0 0 1 61.1831 1006.6504)" fill="#79C123" font-family="'NasalizationRg-Regular'" font-size="1296">O</text>
	
		<text transform="matrix(1 0 0 1 61.1831 1006.6504)" fill="none" stroke="#000000" stroke-miterlimit="10" font-family="'NasalizationRg-Regular'" font-size="1296">O</text>
</g>
<g>
	<g>
		<g>
			<g>
				<g>
					<polygon points="489.017,456.751 489.003,454.974 484.775,455.013 484.775,456.791 					"/>
					<polygon points="495.333,456.693 495.3,454.916 491.072,454.955 491.092,456.732 					"/>
					<polygon points="501.647,456.517 501.594,454.74 497.368,454.862 497.407,456.639 					"/>
					<path d="M507.961,456.305l-0.075-1.775c0,0-1.054,0.068-2.111,0.09c-1.057,0.031-2.113,0.061-2.113,0.061l0.06,1.776
						c0,0,1.06-0.031,2.12-0.061C506.902,456.373,507.961,456.305,507.961,456.305z"/>
					<polygon points="514.271,455.988 514.174,454.213 509.952,454.425 510.034,456.201 					"/>
					<path d="M520.579,455.602l-0.121-1.773c0,0-1.054,0.078-2.107,0.155c-1.053,0.089-2.109,0.125-2.11,0.125l0.105,1.774
						c0,0,1.06-0.037,2.117-0.126C519.521,455.68,520.579,455.602,520.579,455.602z"/>
					<polygon points="526.879,455.138 526.734,453.367 522.52,453.677 522.648,455.45 					"/>
				</g>
			</g>
			<g>
				<g>
					<polygon points="533.173,454.559 533.002,452.79 528.797,453.209 528.95,454.979 					"/>
					<polygon points="539.463,453.933 539.264,452.167 535.059,452.585 535.24,454.354 					"/>
					<polygon points="545.734,453.14 545.506,451.377 541.315,451.915 541.523,453.68 					"/>
					<path d="M552,452.302l-0.258-1.758c0,0-1.04,0.182-2.09,0.302c-1.047,0.134-2.095,0.268-2.095,0.268l0.238,1.762
						c0,0,1.052-0.135,2.105-0.27C550.955,452.485,552,452.302,552,452.302z"/>
					<polygon points="558.245,451.304 557.954,449.551 553.783,450.218 554.052,451.975 					"/>
					<path d="M564.475,450.217l-0.325-1.748c0,0-1.036,0.202-2.072,0.405c-1.036,0.201-2.082,0.351-2.082,0.351l0.301,1.751
						c0,0,1.051-0.15,2.094-0.353C563.433,450.42,564.475,450.217,564.475,450.217z"/>
					<polygon points="570.681,449.005 570.321,447.265 566.177,448.074 566.514,449.819 					"/>
				</g>
			</g>
		</g>
	</g>
</g>
</svg>
